<svg width="17" height="17" viewBox="0 0 17 17" fill="none" xmlns="http://www.w3.org/2000/svg">
<path d="M16.1792 8.97961C16.1986 8.55938 15.9836 8.16549 15.6205 7.95048L7.15881 2.93131C6.78 2.70043 6.3241 2.71222 5.95219 2.94859C5.57346 3.18892 5.36405 3.78387 5.45327 4.22151L6.1466 7.61865C6.21779 7.96701 6.51909 8.22058 6.87502 8.23079L11.6713 8.37411C11.9171 8.37729 12.1097 8.58303 12.0967 8.82845C12.0879 9.06984 11.8852 9.25961 11.6395 9.25643L6.83873 9.10923C6.48284 9.09818 6.16392 9.33238 6.06777 9.67574L5.12318 13.0323C5.00886 13.4288 5.11099 13.8319 5.38384 14.1233C5.41594 14.1576 5.45206 14.1962 5.48847 14.2264C5.84458 14.5204 6.32194 14.5722 6.7377 14.3679L15.5395 9.96459C15.917 9.78005 16.1599 9.39984 16.1792 8.97961Z" fill="#272932"/>
</svg>
