<svg width="23" height="21" viewBox="0 0 23 21" fill="none" xmlns="http://www.w3.org/2000/svg">
<path fill-rule="evenodd" clip-rule="evenodd" d="M11.8698 1.11899C13.6208 0.0119727 15.9468 -0.293856 17.9562 0.350107C22.3272 1.75972 23.684 6.52483 22.4704 10.3165C20.5977 16.2715 12.5999 20.7136 12.2607 20.8999C12.1401 20.9666 12.0065 21 11.873 21C11.7395 21 11.607 20.9677 11.4864 20.902C11.1494 20.7179 3.20965 16.3415 1.27453 10.3175C1.27346 10.3175 1.27346 10.3165 1.27346 10.3165C0.0587584 6.52375 1.4113 1.75757 5.77797 0.350107C7.82831 -0.313239 10.0628 -0.02141 11.8698 1.11899ZM6.27333 1.88787C2.74014 3.02718 1.85281 6.82743 2.81229 9.82433C4.32205 14.5216 10.2868 18.3197 11.8719 19.2598C13.4625 18.31 19.4703 14.4699 20.9316 9.82864C21.891 6.82851 21.0005 3.02826 17.4619 1.88787C15.7476 1.33759 13.7478 1.67249 12.3673 2.74074C12.0787 2.96257 11.6781 2.96688 11.3873 2.7472C9.92496 1.64773 8.01461 1.32574 6.27333 1.88787ZM16.4281 4.0264C17.8959 4.5013 18.9243 5.80107 19.0503 7.33775C19.0858 7.7825 18.7552 8.17232 18.3105 8.20786C18.2879 8.21001 18.2663 8.21109 18.2437 8.21109C17.827 8.21109 17.4738 7.89126 17.4393 7.46913C17.3682 6.58395 16.776 5.83661 15.9328 5.56416C15.5074 5.42632 15.2748 4.97081 15.4116 4.54761C15.5505 4.12332 16.0017 3.89287 16.4281 4.0264Z" fill="#8C67F6"/>
</svg>
